<?xml version="1.0" encoding="UTF-8" standalone="no"?>
<!-- Created with Inkscape (http://www.inkscape.org/) -->

<svg
   width="200"
   height="200"
   viewBox="0 0 200 200"
   version="1.1"
   id="svg1"
   inkscape:version="1.4 (1:1.4+202410161351+e7c3feb100)"
   sodipodi:docname="logo.svg"
   xmlns:inkscape="http://www.inkscape.org/namespaces/inkscape"
   xmlns:sodipodi="http://sodipodi.sourceforge.net/DTD/sodipodi-0.dtd"
   xmlns:xlink="http://www.w3.org/1999/xlink"
   xmlns="http://www.w3.org/2000/svg"
   xmlns:svg="http://www.w3.org/2000/svg">
  <sodipodi:namedview
     id="namedview1"
     pagecolor="#505050"
     bordercolor="#eeeeee"
     borderopacity="1"
     inkscape:showpageshadow="0"
     inkscape:pageopacity="0"
     inkscape:pagecheckerboard="0"
     inkscape:deskcolor="#505050"
     inkscape:document-units="px"
     showgrid="true"
     inkscape:zoom="1.9598765"
     inkscape:cx="57.146457"
     inkscape:cy="86.229921"
     inkscape:window-width="1366"
     inkscape:window-height="768"
     inkscape:window-x="0"
     inkscape:window-y="0"
     inkscape:window-maximized="0"
     inkscape:current-layer="layer1">
    <inkscape:grid
       id="grid1"
       units="px"
       originx="0"
       originy="0"
       spacingx="1"
       spacingy="1"
       empcolor="#0099e5"
       empopacity="0.30196078"
       color="#0099e5"
       opacity="0.14901961"
       empspacing="10"
       enabled="true"
       visible="true" />
  </sodipodi:namedview>
  <defs
     id="defs1">
    <linearGradient
       id="linearGradient1"
       inkscape:collect="always">
      <stop
         style="stop-color:#00ff7f;stop-opacity:1;"
         offset="0"
         id="stop1" />
      <stop
         style="stop-color:#00ffff;stop-opacity:1;"
         offset="0.5"
         id="stop2" />
      <stop
         style="stop-color:#0080ff;stop-opacity:1;"
         offset="1"
         id="stop3" />
    </linearGradient>
    <linearGradient
       inkscape:collect="always"
       xlink:href="#linearGradient1"
       id="linearGradient2"
       x1="29.289322"
       y1="29.289322"
       x2="170.71068"
       y2="170.71068"
       gradientUnits="userSpaceOnUse" />
  </defs>
  <g
     inkscape:label="Calque 1"
     inkscape:groupmode="layer"
     id="layer1">
    <path
       id="path1"
       style="fill:url(#linearGradient2);paint-order:stroke fill markers"
       d="M 100 0 C 44.889971 0 0 44.889971 0 100 C 0 155.11003 44.889971 200 100 200 C 155.11003 200 200 155.11003 200 100 C 200 83.146334 195.78395 67.258982 188.37891 53.308594 C 187.35318 54.812678 186.18327 56.244462 184.85352 57.574219 C 181.17944 61.248296 176.75284 63.75824 172.05078 65.111328 C 177.143 75.64674 180 87.478172 180 100 C 180 144.30123 144.30123 180 100 180 C 55.698774 180 20 144.30123 20 100 C 20 55.698774 55.698774 20 100 20 C 112.52245 20 124.35482 22.856521 134.89062 27.949219 C 136.24376 23.247409 138.75383 18.822337 142.42773 15.148438 C 143.75758 13.818587 145.18916 12.646868 146.69336 11.621094 C 132.7426 4.2155396 116.85428 0 100 0 z M 163.64062 26.298828 C 161.10234 26.298828 158.56286 27.294564 156.56836 29.289062 C 152.79198 33.065445 152.59689 38.789244 155.9707 42.773438 C 156.39044 43.183974 156.80423 43.599867 157.21484 44.019531 C 161.19956 47.404325 166.93062 47.211958 170.71094 43.431641 C 174.37607 39.76651 174.66374 34.269949 171.59375 30.306641 C 170.96723 29.663222 170.33291 29.028825 169.68945 28.402344 C 167.88403 27.005679 165.7647 26.298828 163.64062 26.298828 z " />
    <path
       style="fill:#ffffff;paint-order:stroke fill markers"
       d="m 161.42136,-90 a 20,20 0 0 1 -20,20 20,20 0 0 1 -20,-20 20,20 0 0 1 20,-20 20,20 0 0 1 20,20 z"
       id="path5"
       transform="rotate(45)" />
    <circle
       style="fill:#ffffff;stroke:none;stroke-width:20;stroke-dasharray:none;paint-order:stroke fill markers"
       id="path6"
       cx="100"
       cy="100"
       r="35" />
  </g>
</svg>
