<?xml version="1.0" encoding="UTF-8" standalone="no"?>
<!-- Created with Inkscape (http://www.inkscape.org/) -->

<svg
   version="1.1"
   id="svg4193"
   width="450"
   height="200"
   viewBox="0 0 450 200"
   sodipodi:docname="logoportfolio.png"
   inkscape:version="1.2.2 (b0a8486541, 2022-12-01)"
   inkscape:export-filename="logoportfolio.svg"
   inkscape:export-xdpi="96"
   inkscape:export-ydpi="96"
   xmlns:inkscape="http://www.inkscape.org/namespaces/inkscape"
   xmlns:sodipodi="http://sodipodi.sourceforge.net/DTD/sodipodi-0.dtd"
   xmlns="http://www.w3.org/2000/svg"
   xmlns:svg="http://www.w3.org/2000/svg">
  <defs
     id="defs4197" />
  <sodipodi:namedview
     id="namedview4195"
     pagecolor="#ffffff"
     bordercolor="#000000"
     borderopacity="0.25"
     inkscape:showpageshadow="2"
     inkscape:pageopacity="0.0"
     inkscape:pagecheckerboard="true"
     inkscape:deskcolor="#d1d1d1"
     showgrid="false"
     inkscape:zoom="1.57"
     inkscape:cx="224.20382"
     inkscape:cy="250.63694"
     inkscape:window-width="1920"
     inkscape:window-height="953"
     inkscape:window-x="0"
     inkscape:window-y="0"
     inkscape:window-maximized="1"
     inkscape:current-layer="g4199" />
  <g
     inkscape:groupmode="layer"
     inkscape:label="Image"
     id="g4199">
    <path
       style="fill:#000000"
       d="m 67.486088,171.03714 c -6.882938,-1.9914 -9.831488,-9.6377 -9.022518,-23.39752 0.64479,-10.96734 3.82545,-23.86429 7.742168,-31.39304 5.185356,-9.96735 9.054366,-13.10696 16.151956,-13.10696 10.12299,0 13.897867,4.55979 14.611467,17.64963 0.50676,9.29585 -0.79814,18.08836 -4.355997,29.35098 -3.25856,10.31519 -7.71432,16.88132 -13.40188,19.74939 -4.77631,2.40855 -6.71191,2.59799 -11.725196,1.14752 z m 9.005766,-11.69717 c 5.03846,-5.56743 11.60249,-38.7421 8.72825,-44.11266 -1.67095,-3.12219 -5.0236,-2.31235 -7.41334,1.79071 -4.45526,7.64945 -9.786096,36.11232 -7.748516,41.3716 1.236736,3.19222 4.031186,3.605 6.433606,0.95035 z m -43.92996,10.04965 c 0.64609,-2.15981 10.611286,-53.264 10.611286,-54.41752 0,-0.45786 -1.8,-0.83248 -4,-0.83248 -2.20001,0 -4.00001,-0.20285 -4.00001,-0.45078 0,-0.24793 0.487289,-2.72293 1.082864,-5.5 l 1.082864,-5.04922 H 51.30135 65.2638 l -0.63263,3.75 c -1.17154,6.94443 -1.30723,7.12146 -5.70677,7.44494 l -4.14895,0.30506 -5.49802,28.25 -5.49802,28.25 H 37.9089 c -5.123719,0 -5.803911,-0.22262 -5.347006,-1.75 z m 61.61128,0.7878 c 0,-1.22767 11.929536,-62.94817 12.619036,-65.2878 0.40752,-1.38281 1.63227,-1.75 5.83706,-1.75 6.09825,0 5.37874,-1.48992 7.63058,15.80101 0.66621,5.11556 1.54813,8.94056 1.95982,8.5 0.41169,-0.44055 3.53453,-6.08851 6.93965,-12.55101 l 6.19113,-11.75 h 5.41136 c 4.49801,0 5.40649,0.29537 5.38248,1.75 -0.0159,0.9625 -2.83931,16.15 -6.27429,33.75 l -6.24543,32 -5.5641,0.29508 -5.5641,0.29508 3.84807,-19.70207 c 2.11644,-10.83614 3.70235,-19.8478 3.52424,-20.02591 -0.17811,-0.17811 -3.20498,5.18004 -6.72638,11.90699 l -6.40254,12.23083 -1.69427,-11.82764 c -0.93185,-6.50521 -1.89615,-12.02953 -2.1429,-12.27627 -0.24674,-0.24674 -2.17006,8.56319 -4.27403,19.57764 l -3.8254,20.02627 h -5.314999 c -2.92324,0 -5.314987,-0.43299 -5.314987,-0.9622 z m 42.447466,-0.7878 c 0.32024,-0.9625 6.11302,-16.15 12.87285,-33.75 l 12.2906,-32 6.19454,-0.29772 6.19454,-0.29771 v 34.04771 34.04772 l -5.75,0.002 -5.75,0.002 v -6.75178 -6.75179 l -5.26118,-0.30265 c -3.64561,-0.20971 -5.40073,0.0974 -5.71563,1 -0.24995,0.71646 -1.40225,3.89015 -2.56067,7.05265 l -2.10622,5.75 h -5.49554 c -4.78898,0 -5.42068,-0.22499 -4.91329,-1.75 z m 27.05676,-30.5 c 1.22826,-14.81946 0.4644,-15.56989 -3.75423,-3.68817 -2.0625,5.809 -3.75,10.8715 -3.75,11.25 0,0.37849 1.5346,0.68817 3.41023,0.68817 h 3.41023 z m 16.13689,30.60187 -3.85888,-1.65263 0.66886,-5.04217 c 0.36788,-2.77319 0.90251,-5.4202 1.18807,-5.88224 0.28555,-0.46204 2.04736,0.10438 3.91512,1.25872 7.59504,4.69399 14.10085,1.47118 13.1981,-6.53799 -0.25957,-2.3029 -2.42875,-7.44725 -5.06492,-12.01177 -5.15553,-8.92681 -7.01918,-15.55718 -6.05956,-21.5583 1.47357,-9.2152 9.64106,-15.46985 19.03628,-14.57795 2.8403,0.26963 6.1479,1.01671 7.35022,1.66017 1.93384,1.03496 2.10751,1.69359 1.50537,5.70896 -1.08295,7.22162 -1.35476,7.5583 -4.25821,5.27444 -3.27446,-2.57569 -8.41579,-2.58316 -10.7394,-0.0156 -2.76593,3.05632 -1.49729,9.21813 3.81397,18.5245 5.00884,8.77646 6.98299,15.57167 6.00829,20.68107 -1.00274,5.25637 -4.02553,10.45566 -7.52925,12.95053 -4.20905,2.99711 -13.62581,3.59641 -19.17406,1.22027 z m 26.78719,-3.60187 c 0.68635,-2.8875 6.49764,-15.7125 12.91397,-28.5 l 11.66606,-23.25 h -7.11771 -7.11772 l 0.71092,-4.75 c 0.391,-2.6125 0.91865,-5.0875 1.17256,-5.5 0.2539,-0.4125 6.5154,-0.75 13.91444,-0.75 h 13.45281 l -0.65856,4.25 c -0.36621,2.36333 -5.92048,14.78959 -12.51182,27.992 -6.51929,13.0581 -11.85326,23.9706 -11.85326,24.25 0,0.2794 3.29837,0.508 7.3297,0.508 h 7.32971 l -0.99691,5.5 -0.99691,5.5 h -14.2426 -14.24259 z m 31.57169,4.2878 c 0,-1.22767 11.92954,-62.94817 12.61904,-65.2878 0.4557,-1.54627 1.97631,-1.75 13.06189,-1.75 h 12.54616 l -0.71092,4.75 c -0.391,2.6125 -0.91865,5.0875 -1.17256,5.5 -0.2539,0.4125 -3.52104,0.75 -7.2603,0.75 h -6.79866 l -1.62828,8.11822 c -0.89555,4.46503 -1.38304,8.51503 -1.0833,9 0.29973,0.48498 3.02916,0.88178 6.0654,0.88178 h 5.52044 l -0.65411,3.25 c -1.36737,6.79385 -1.19158,6.63728 -7.80748,6.95365 l -6.19732,0.29635 -1.55946,8.5 -1.55945,8.5 7.13211,0.28887 7.13212,0.28887 -0.98987,5.46113 -0.98986,5.46113 h -12.8328 c -7.55243,0 -12.83279,-0.39592 -12.83279,-0.9622 z m 37.48137,-7.73905 c 0.66364,-10.41622 2.51863,-51.83281 2.51863,-56.2339 0,-3.03669 0.049,-3.06485 5.33333,-3.06485 2.93334,0 5.52633,0.193 5.76222,0.42888 0.23589,0.23589 -0.10278,7.32339 -0.7526,15.75 -2.06912,26.83176 -2.04017,26.85424 5.56471,4.32112 l 6.74995,-20 5.30168,-0.30678 5.30169,-0.30679 -0.67352,16.30679 c -0.37043,8.96873 -0.93681,18.33178 -1.25862,20.80678 -0.3218,2.475 -0.30016,4.23521 0.0481,3.91159 0.34827,-0.32363 3.45818,-9.54863 6.91091,-20.5 l 6.2777,-19.91159 5.71722,-0.2999 c 3.14447,-0.16495 5.71722,-0.0884 5.71722,0.17021 0,0.40168 -18.67818,54.97189 -22.03575,64.37969 -1.13382,3.17691 -1.2949,3.25 -7.16277,3.25 h -6.00287 l 0.63021,-12.75 c 0.34661,-7.0125 0.89236,-15.9 1.21277,-19.75 0.32041,-3.85 0.29284,-6.72321 -0.0613,-6.3849 -0.35412,0.3383 -3.47926,9.1133 -6.94478,19.5 l -6.30093,18.8849 -6.20691,0.29875 -6.20692,0.29874 0.56059,-8.79874 z m 52.88868,7.26086 c -1.72148,-0.74916 -3.37523,-1.75898 -3.67502,-2.24404 -0.47407,-0.76707 1.07615,-10.29589 1.809,-11.11946 0.14872,-0.16713 1.78366,0.61868 3.63319,1.74626 3.39097,2.06734 8.35763,2.66613 10.55022,1.27197 1.90737,-1.21282 3.36876,-6.12788 2.68598,-9.03374 -0.34642,-1.47433 -2.88283,-6.62631 -5.63646,-11.44885 -4.3233,-7.57153 -5.0683,-9.687 -5.45859,-15.5 -0.38424,-5.72272 -0.0938,-7.39835 1.93756,-11.17901 4.27702,-7.9601 13.77083,-11.04245 22.83758,-7.41465 3.34456,1.33823 4.00146,2.02468 3.58852,3.75 -0.27802,1.16155 -0.80504,3.76614 -1.17117,5.78797 l -0.6657,3.67605 -3.15258,-1.92231 c -6.65191,-4.05608 -13.40065,-0.92702 -12.32302,5.71359 0.59063,3.63964 1.22993,5.04543 7.07739,15.5629 9.61418,17.29243 2.66797,33.89202 -14.12483,33.75457 -2.63017,-0.0215 -6.1906,-0.65209 -7.91207,-1.40125 z m 26.62995,0.47819 c 0,-1.22767 11.92954,-62.94817 12.61904,-65.2878 0.40924,-1.38863 1.63757,-1.75 5.94835,-1.75 2.98793,0 5.43087,0.3375 5.42874,0.75 -0.002,0.4125 -1.1398,6.54983 -2.52816,13.63851 -1.38836,7.08867 -2.37284,13.03995 -2.18773,13.22506 0.1851,0.18511 3.63637,-5.76575 7.66949,-13.22413 4.03311,-7.45837 7.88548,-13.77271 8.5608,-14.03186 0.67533,-0.25914 3.53503,-0.33311 6.35489,-0.16438 l 5.12702,0.3068 -8.56818,14.99668 -8.56817,14.99667 1.59922,14.50333 c 0.87956,7.97682 1.86304,16.41582 2.18549,18.75332 l 0.58629,4.25 h -6.04159 -6.04159 l -0.56402,-5.25 c -0.31021,-2.8875 -0.90509,-8.85 -1.32196,-13.25 l -0.75793,-8 -2.61399,4.5 c -1.4377,2.475 -3.165,7.65 -3.83845,11.5 -1.94607,11.12542 -1.4925,10.5 -7.61495,10.5 -2.98793,0 -5.43261,-0.43299 -5.43261,-0.9622 z m 42.64081,-26.2878 c 2.92629,-14.9875 5.89173,-30.175 6.58986,-33.75 l 1.26933,-6.5 5.83402,-0.30241 c 5.21267,-0.2702 5.78127,-0.11045 5.33874,1.5 -0.27241,0.99133 -3.29278,16.31491 -6.71193,34.05241 l -6.21664,32.25 h -5.71196 -5.71196 z M 185.22823,97.832443 c -0.14699,-7.4938 6.31603,-23.4652 14.44135,-35.68742 6.18813,-9.308272 17.34085,-21.063472 24.55351,-25.879902 3.52474,-2.35373 5.43084,-4.19586 4.69285,-4.53535 -0.68352,-0.31443 -0.17392,-0.30263 1.13246,0.0262 1.5374,0.38701 2.14489,0.22521 1.72221,-0.4587 -0.63545,-1.02819 0.70167,-1.37808 9.90256,-2.59129 4.57549,-0.60331 2.5699,0.5416 -4.04761,2.31062 -16.96332,4.5347 -44.0812,38.114552 -50.47565,62.503582 -1.1114,4.23895 -1.88889,5.98366 -1.92168,4.31225 z m -67.05455,-1.81627 c -10.59163,-4.22346 -14.27461,-19.00505 -7.90918,-31.74339 1.86749,-3.73718 4.83668,-7.645242 7.5,-9.871492 2.42477,-2.02686 4.46087,-4.6024 4.52467,-5.72343 0.096,-1.68631 0.19497,-1.73608 0.57333,-0.28824 0.25152,0.9625 0.53682,1.74322 0.63399,1.73494 0.0972,-0.008 1.97668,-0.66353 4.17668,-1.4561 5.36177,-1.93165 11.93992,-1.88845 16.14292,0.106 3.28569,1.55917 6.40172,5.78369 6.31794,8.5655 -0.0215,0.714812 -0.63505,-0.0503 -1.36337,-1.70034 -2.12888,-4.82289 -5.08688,-6.79311 -10.92583,-7.27732 -6.88504,-0.57096 -15.66336,2.8708 -15.68697,6.15046 -0.0118,1.63763 -0.22085,1.80218 -0.90885,0.71534 -0.7116,-1.12413 -1.54575,-0.71691 -4.09684,2 -7.87825,8.390312 -10.4017,21.275442 -5.96253,30.445552 2.17811,4.49937 3.85229,5.93635 9.48353,8.13989 1.65,0.64566 2.325,1.17964 1.5,1.18662 -0.825,0.007 -2.62477,-0.43582 -3.99949,-0.98399 z m 13.49949,0.27013 c 10.54012,-2.87597 18.2832,-10.28567 32.2494,-30.8609 5.52002,-8.132182 11.9244,-16.925052 14.23195,-19.539722 4.86971,-5.51782 14.91952,-11.76583 18.82223,-11.70186 2.6121,0.0428 2.58203,0.10462 -0.96155,1.97667 -4.51347,2.38443 -9.13712,7.85265 -12.34346,14.59813 -3.1325,6.59015 -7.37362,19.590102 -8.09412,24.810252 l -0.56186,4.07075 3.49656,-6 c 7.15109,-12.27108 23.30033,-28.655022 34.03323,-34.527822 5.26741,-2.88221 3.76705,-1.49269 -3.8459,3.5618 -7.77995,5.16538 -21.05058,18.391252 -25.96836,25.880772 -2.13606,3.25312 -5.18789,8.87812 -6.78184,12.5 l -2.8981,6.58525 0.59612,-7 c 1.21582,-14.27667 5.9889,-27.900932 13.24926,-37.818672 l 3.77644,-5.15865 -3.1696,2.24951 c -3.61067,2.56253 -10.80116,11.96951 -20.81236,27.227812 -11.46949,17.48092 -24.13591,28.40735 -34.24644,29.54199 -3.4145,0.38319 -3.48755,0.34576 -0.7716,-0.39531 z m 72.07293,-3.71661 c -5.09147,-5.09147 -1.85191,-17.18049 7.42181,-27.69587 8.12108,-9.208412 17.86522,-12.450642 20.6338,-6.8656 l 1.17415,2.3686 1.13384,-2.1186 c 0.62361,-1.165232 2.03172,-2.118602 3.12913,-2.118602 1.72995,0 1.34849,0.96412 -2.86848,7.250002 -11.26423,16.79061 -15.85576,26.06637 -14.21614,28.71932 1.18128,1.91135 3.99803,-0.0485 10.90838,-7.58995 7.41242,-8.08935 8.14561,-7.50001 0.97164,0.78101 -8.09383,9.34283 -14.86106,11.46296 -14.86106,4.65587 v -3.04897 l -4.00288,3.61636 c -4.34295,3.92359 -6.9754,4.49522 -9.42419,2.04643 z m 9.37336,-3.25295 c 3.63968,-3.8261 13.32218,-17.92802 16.41184,-23.90277 2.05649,-3.97682 2.11455,-8.155742 0.12391,-8.919622 -6.67704,-2.56221 -23.44752,16.818512 -25.12151,29.031542 -1.12862,8.2342 2.73579,9.94045 8.58576,3.79085 z m 25.38678,2.24686 c -2.24471,-2.24471 -2.4894,-3.11284 -1.90255,-6.75 0.37041,-2.29569 0.83516,-5.18382 1.03277,-6.41808 0.72817,-4.54795 12.83413,-18.28303 18.85699,-21.394602 2.32476,-1.20103 5.26076,-1.85379 7.5,-1.66748 3.18769,0.26524 3.7223,0.67673 3.99819,3.077362 0.72394,6.29948 -9.58358,15.60676 -19.96239,18.02524 -4.61326,1.07499 -5.35994,1.63095 -6.98863,5.20358 -2.25302,4.94212 -2.34073,7.88387 -0.29602,9.92857 5.65392,5.65392 22.10934,-6.73407 34.9172,-26.2864 3.91832,-5.98165 6.61796,-9.142172 7.80902,-9.142172 2.08488,0 2.46423,-0.77555 -5.62514,11.500002 -5.83611,8.85624 -11.67017,19.91661 -11.67172,22.12756 -0.002,2.38245 2.92384,3.72781 5.52701,2.54173 6.52239,-2.9718 17.95118,-16.5543 22.93111,-27.25238 2.6858,-5.76975 3.3181,-10.916912 1.34109,-10.916912 -0.89377,0 -0.91093,-0.28907 -0.0672,-1.13278 1.98329,-1.98329 4.26889,-0.17894 4.24526,3.3514 -0.0768,11.477662 -22.20458,37.781382 -31.78323,37.781382 -2.28371,0 -5.19483,-3.01323 -5.19483,-5.37705 0,-0.94576 0.85985,-3.49925 1.91078,-5.67442 l 1.91078,-3.95486 -6.06525,5.48874 c -10.45512,9.46134 -17.66996,11.69484 -22.42324,6.94157 z m 15.48778,-18.49232 c 7.3186,-3.65715 13.40822,-10.18797 12.97323,-13.91316 -0.45603,-3.905442 -4.49368,-3.827432 -9.54485,0.1844 -4.12734,3.27809 -13.24923,14.23699 -13.24923,15.91742 0,1.68767 3.72481,0.85757 9.82085,-2.18866 z m 43.64375,19.02922 c -2.45083,-2.70814 -2.32525,-10.23903 0.26764,-16.04995 2.85344,-6.39486 9.72813,-14.61276 15.04508,-17.98466 5.79399,-3.674442 11.5785,-3.998452 13.31913,-0.746052 1.09815,2.051922 1.2429,2.076172 2.45968,0.41214 0.71107,-0.97245 1.98915,-1.61605 2.84017,-1.43023 1.16745,0.25492 -0.0661,2.792852 -5.02451,10.337872 -10.43189,15.87367 -14.16683,24.27257 -11.52104,25.90776 1.86958,1.15546 8.14825,-4.79396 18.43838,-17.47152 1.53402,-1.88993 2.35491,-2.51572 1.82421,-1.39064 -1.55491,3.29636 -14.36289,17.52559 -17.37406,19.30199 -3.42901,2.0229 -6.09006,0.70457 -6.5607,-3.25029 l -0.32143,-2.70097 -3.93146,3.55184 c -4.48435,4.05134 -6.82498,4.42558 -9.46109,1.51271 z m 8.65277,-1.71088 c 3.58397,-3.01328 17.40572,-23.58349 19.08686,-28.406 1.38386,-3.96976 -0.7549,-6.424582 -4.7285,-5.427262 -3.79532,0.95256 -12.90184,9.876922 -17.05512,16.713952 -4.27036,7.02976 -6.45219,15.9214 -4.48766,18.28853 1.85586,2.23616 3.44091,1.9782 7.18442,-1.16922 z M 135.43692,69.422043 c 1.52006,-0.22986 3.77006,-0.22371 5,0.0136 1.22994,0.23736 -0.0137,0.42542 -2.76375,0.41792 -2.75,-0.008 -3.75631,-0.20172 -2.23625,-0.43157 z m -8.74331,-3.53242 c -1.8976,-1.7875 -3.72162,-4.6 -4.05339,-6.25 -0.49954,-2.484432 -0.25778,-2.273152 1.40673,1.22934 1.12058,2.35794 3.47373,5.12179 5.31808,6.24626 1.81948,1.10931 2.73903,2.01861 2.04345,2.02066 -0.69557,0.002 -2.81726,-1.45876 -4.71487,-3.24626 z m 17.29206,2.56689 c 0.72187,-0.28887 1.58437,-0.25335 1.91667,0.0789 0.33229,0.33229 -0.25834,0.56864 -1.3125,0.52522 -1.16495,-0.048 -1.4019,-0.28494 -0.60417,-0.60416 z m -20.7683,-22.916412 c -0.0692,-1.72189 5.16939,-9.01855 8.14735,-11.34815 2.97752,-2.32924 9.03312,-5.07827 11.02633,-5.00556 0.70517,0.0257 -0.93133,0.91107 -3.63666,1.96743 -5.57743,2.17783 -10.87109,6.83535 -13.62286,11.9858 -1.02848,1.925 -1.88986,3.00522 -1.91416,2.40048 z m 95.39693,-9.84531 c 1.06762,-0.85535 2.38012,-1.55517 2.91667,-1.55517 1.27054,0 0.70323,0.4619 -2.3578,1.91971 -2.35727,1.12265 -2.38918,1.10183 -0.55887,-0.36454 z m 42.14156,-0.46379 c -0.95,-1.04975 -3.05918,-2.46032 -4.68705,-3.13461 -1.62787,-0.67428 -2.76216,-1.42358 -2.52064,-1.66511 0.70217,-0.70216 5.95393,2.30933 8.03235,4.60596 1.04644,1.15631 1.67763,2.10238 1.40263,2.10238 -0.275,0 -1.27728,-0.85888 -2.22729,-1.90862 z m -71.83269,-1.75366 c 0.6875,-0.27741 1.8125,-0.27741 2.5,0 0.6875,0.27741 0.125,0.50439 -1.25,0.50439 -1.375,0 -1.9375,-0.22698 -1.25,-0.50439 z m 35.25,-0.33772 c 0.825,-0.53316 1.95,-0.96937 2.5,-0.96937 0.55,0 0.325,0.43621 -0.5,0.96937 -0.825,0.53316 -1.95,0.96937 -2.5,0.96937 -0.55,0 -0.325,-0.43621 0.5,-0.96937 z m -40.25,-0.66228 c 0.6875,-0.27741 1.8125,-0.27741 2.5,0 0.6875,0.27741 0.125,0.50439 -1.25,0.50439 -1.375,0 -1.9375,-0.22698 -1.25,-0.50439 z m -3.9375,-1.02083 c 0.72187,-0.28887 1.58437,-0.25335 1.91667,0.0789 0.33229,0.33229 -0.25834,0.56864 -1.3125,0.52522 -1.16495,-0.048 -1.4019,-0.28494 -0.60417,-0.60416 z m -5.0625,-0.97917 c 0.6875,-0.27741 1.8125,-0.27741 2.5,0 0.6875,0.27741 0.125,0.50439 -1.25,0.50439 -1.375,0 -1.9375,-0.22698 -1.25,-0.50439 z m -6,-1 c 0.6875,-0.27741 1.8125,-0.27741 2.5,0 0.6875,0.27741 0.125,0.50439 -1.25,0.50439 -1.375,0 -1.9375,-0.22698 -1.25,-0.50439 z m 80,0 c 0.6875,-0.27741 1.8125,-0.27741 2.5,0 0.6875,0.27741 0.125,0.50439 -1.25,0.50439 -1.375,0 -1.9375,-0.22698 -1.25,-0.50439 z M 145.4422,28.446631 c 0.97297,-0.25354 2.32297,-0.23687 3,0.0371 0.67703,0.27393 -0.11903,0.48137 -1.76903,0.46099 -1.65,-0.0204 -2.20394,-0.2445 -1.23097,-0.49804 z m 15.49263,-0.0143 c 1.24391,-0.23919 3.04391,-0.23011 4,0.0202 0.95609,0.25029 -0.0617,0.446 -2.26166,0.4349 -2.2,-0.0111 -2.98225,-0.21589 -1.73834,-0.45508 z"
       id="path5046" />
  </g>
</svg>
