<?xml version="1.0" encoding="UTF-8" standalone="no"?>
<!-- Created with Inkscape (http://www.inkscape.org/) -->

<svg
   version="1.1"
   id="svg176"
   width="500"
   height="200"
   viewBox="0 0 500 200"
   sodipodi:docname="AT WORK (1).png"
   inkscape:version="1.2.2 (b0a8486541, 2022-12-01)"
   inkscape:dataloss="true"
   inkscape:export-filename="../Bureau/Portfolio/images/logo.svg"
   inkscape:export-xdpi="96"
   inkscape:export-ydpi="96"
   xmlns:inkscape="http://www.inkscape.org/namespaces/inkscape"
   xmlns:sodipodi="http://sodipodi.sourceforge.net/DTD/sodipodi-0.dtd"
   xmlns="http://www.w3.org/2000/svg"
   xmlns:svg="http://www.w3.org/2000/svg">
  <defs
     id="defs180" />
  <sodipodi:namedview
     id="namedview178"
     pagecolor="#ffffff"
     bordercolor="#000000"
     borderopacity="0.25"
     inkscape:showpageshadow="2"
     inkscape:pageopacity="0.0"
     inkscape:pagecheckerboard="true"
     inkscape:deskcolor="#d1d1d1"
     showgrid="false"
     inkscape:zoom="1.494"
     inkscape:cx="232.93173"
     inkscape:cy="71.285141"
     inkscape:window-width="1920"
     inkscape:window-height="953"
     inkscape:window-x="0"
     inkscape:window-y="0"
     inkscape:window-maximized="1"
     inkscape:current-layer="g182" />
  <g
     inkscape:groupmode="layer"
     inkscape:label="Image"
     id="g182">
    <path
       style="fill:#000000"
       d="m 320.93645,176.34199 c -1.26419,-3.29443 -0.52935,-12.71178 1.45051,-18.58891 2.75768,-8.18605 8.13727,-18.70895 14.22709,-27.8293 6.71399,-10.05514 23.599,-26.72054 30.90756,-30.505574 3.13068,-1.62135 5.22542,-3.23636 4.65498,-3.58891 -0.57045,-0.35255 0.12373,-0.93238 1.54262,-1.28849 1.55474,-0.390217 2.7789,-1.535447 3.08089,-2.882257 0.2756,-1.22912 3.48902,-17.64727 7.14093,-36.48477 l 6.63983,-34.25 h 6.3743 c 3.50587,0 6.37194,0.1125 6.36905,0.25 -0.003,0.1375 -1.30748,7 -2.89909,15.25 -1.59161,8.25 -2.75925,15.14251 -2.59474,15.31668 0.16451,0.17417 4.0566,-6.67747 8.64909,-15.22586 l 8.34999,-15.54254 7.19362,-0.0241 7.19362,-0.0241 -9.44362,16.4689 c -6.70646,11.69551 -9.43956,17.41989 -9.42962,19.75 0.008,1.8046 0.9014,10.9311 1.986,20.2811 1.0846,9.35 1.9783,17.562497 1.986,18.249997 0.01,0.86682 -1.88262,1.25 -6.17309,1.25 h -6.18709 l 2.93709,3.205004 2.93709,3.205 -3.73591,-3.16207 c -2.05474,-1.739144 -6.08501,-3.859694 -8.95615,-4.712324 -4.64431,-1.379217 -5.31331,-1.383947 -6.06378,-0.0429 -0.62256,1.11235 -2.62366,1.50721 -7.63881,1.50721 -6.25669,0 -7.30294,0.32639 -13.20031,4.118004 -12.9005,8.29413 -29.29423,27.99805 -39.01261,46.88997 -6.10391,11.86561 -8.25195,18.89867 -7.65846,25.07521 0.49903,5.19349 0.36327,5.9156 -0.62698,3.33503 z m 78.90099,-91.296051 c -0.39084,-5.98281 -1.01901,-12.38575 -1.39595,-14.22876 l -0.68533,-3.35091 -2.68202,4.79865 c -1.47511,2.63927 -3.16947,7.57971 -3.76523,10.97876 -0.59576,3.39906 -1.30507,6.93574 -1.57624,7.85929 -0.3784,1.28875 0.62187,2.02022 4.30188,3.14588 2.6372,0.806687 5.18159,1.513547 5.65421,1.570807 0.47261,0.0573 0.53952,-4.790907 0.14868,-10.773717 z M 255.22888,169.92478 c 14.22218,-2.02797 23.07124,-9.71119 39.93124,-34.67039 14.56373,-21.55986 21.64151,-29.30062 30.46917,-33.32321 l 3.79984,-1.73151 -8.32355,-1.746754 -8.32355,-1.74675 0.65471,-8.641187 c 0.36009,-4.75266 0.91715,-14.7162 1.23791,-22.1412 l 0.5832,-13.5 -6.47352,19 c -3.56043,10.45 -6.71454,19.75566 -7.00912,20.67924 -0.39768,1.2468 0.18416,1.78764 2.25932,2.10017 2.65682,0.400127 2.63433,0.428327 -0.45507,0.570757 -1.7875,0.0824 -3.25,0.59983 -3.25,1.14983 0,0.57143 -3,1 -7,1 -6.33333,0 -7,-0.19048 -7,-2 0,-1.517817 -0.663,-1.997347 -2.75,-1.988987 -5.43986,0.0218 -10.25,1.25121 -10.25,2.619827 0,0.93348 -1.28863,1.36916 -4.04966,1.36916 -5.09755,0 -8.75715,1.877 -12.93345,6.633544 -3.18041,3.62229 -6.95022,10.65042 -6.99493,13.04077 -0.0151,0.80544 1.69786,0.56985 5.45306,-0.75 10.52759,-3.70015 20.63179,-1.43369 23.85084,5.34996 2.52287,5.31654 2.01081,6.81716 -0.57586,1.68762 -3.02109,-5.991 -7.38375,-8.23832 -14.82239,-7.63541 -3.06482,0.24841 -7.50668,1.43846 -9.87082,2.64455 -4.26896,2.17786 -4.29492,2.22395 -3.78757,6.72517 0.55005,4.87999 2.72704,8.46851 7.12333,11.74201 2.28404,1.70071 4.19963,2.05314 10.93821,2.01237 4.73842,-0.0287 7.11932,0.24445 5.66924,0.65032 -11.93783,3.34134 -22.87286,-2.58366 -24.64012,-13.3509 -0.33852,-2.0625 -0.91666,-3.75 -1.28474,-3.75 -1.73615,0 -8.23799,8.08559 -10.51886,13.08109 -3.51621,7.70114 -4.13749,13.40781 -2.18926,20.10946 2.00527,6.89791 4.84752,10.54828 10.05438,12.91312 2.24323,1.01882 3.4036,1.85489 2.5786,1.85792 -3.32509,0.0122 -9.54876,-4.67884 -12.46462,-9.39514 -2.68353,-4.3405 -3.03538,-5.79052 -3.03538,-12.50906 0,-6.57323 0.44468,-8.50272 3.29301,-14.28849 2.04833,-4.16075 5.10034,-8.31054 8.07463,-10.97897 3.23396,-2.90141 5.15917,-5.61252 5.94807,-8.37616 1.52957,-5.35834 5.87705,-11.73599 10.14817,-14.887124 l 3.42468,-2.52665 h -9.31928 -9.31928 l 0.53541,-2.749997 c 0.29447,-1.5125 3.59616,-18.6125 7.33708,-38 l 6.80167,-35.25 h 14.28792 c 8.3655,0 14.28792,0.3941 14.28792,0.95078 0,0.52293 -0.48729,3.22293 -1.08286,6 l -1.08287,5.04922 h -7.84624 -7.84623 l -1.15799,5.75 c -0.6369,3.1625 -1.51598,7.41532 -1.95353,9.45071 -0.43754,2.03538 -0.54835,3.94788 -0.24624,4.25 0.30211,0.30211 3.39929,0.54929 6.88263,0.54929 3.48333,0 6.33333,0.42785 6.33333,0.95078 0,0.52293 -0.48729,3.22293 -1.08286,6 l -1.08287,5.04922 h -6.89808 c -7.78556,0 -6.77511,-1.23759 -9.3639,11.46884 -0.7809,3.83287 -1.20257,7.32037 -0.93704,7.75 0.26553,0.42964 3.87078,0.78116 8.01166,0.78116 h 7.52889 l -0.67909,4.01945 -0.67908,4.01946 5.84119,-0.65836 c 3.21265,-0.36209 6.05899,-0.85115 6.3252,-1.0868 0.51949,-0.45985 2.84206,-49.69219 2.95055,-62.54375 l 0.0654,-7.75 h 6.5 6.5 l -0.0206,3.75 c -0.0113,2.0625 -0.67763,12.04618 -1.48072,22.18595 -0.8031,10.13977 -1.29072,18.60539 -1.08362,18.8125 0.20711,0.2071 3.72165,-9.66408 7.81009,-21.93595 l 7.43354,-22.3125 6.30488,-0.3012 6.30489,-0.3012 -0.60891,6.8012 c -0.3349,3.74066 -0.84957,13.7762 -1.14373,22.3012 -0.62594,18.14091 -0.93745,18.53833 8.03417,-10.25 l 5.84327,-18.75 h 6.30334 c 3.46684,0 6.30939,0.3375 6.31676,0.75 0.007,0.4125 -5.73012,17.50697 -12.75,37.98771 l -12.76336,37.237717 -3,0.11564 -3,0.11563 3.5,0.83668 c 1.925,0.46017 5.29481,1.12919 7.48847,1.4867 l 3.98847,0.650024 -3.48133,1.46379 c -10.44065,4.38997 -18.59359,20.80618 -24.51219,49.35611 -0.28505,1.375 1.22815,-0.75276 3.36267,-4.72836 7.92193,-14.75482 21.14084,-29.14369 35.63225,-38.78594 8.12922,-5.409 20.27062,-11.519724 22.7497,-11.449854 0.69958,0.0197 -1.80708,1.36844 -5.57036,2.99717 -24.1812,10.465484 -47.17662,33.720494 -56.30256,56.938134 -1.31359,3.34198 -1.35912,3.09967 -0.8598,-4.5759 1.04661,-16.08828 8.10893,-35.12407 16.37797,-44.14525 5.7218,-6.24224 3.12085,-5.17805 -3.66609,1.5 -3.21407,3.1625 -10.97506,13.39091 -17.24664,22.7298 -19.27107,28.6962 -30.34795,37.9938 -46.46056,38.99761 l -7,0.43609 z m 85.88021,-4.06452 c -2.25968,-1.31703 -3.94908,-7.78798 -3.14623,-12.05107 1.84605,-9.80245 13.00227,-24.59426 21.73936,-28.82381 7.12145,-3.44744 12.58466,-2.41667 12.65892,2.3884 0.0285,1.84728 0.23458,1.77805 2.08341,-0.7 1.8407,-2.46716 4.88491,-3.77408 4.88491,-2.09716 0,0.35906 -3.14896,5.52564 -6.99769,11.48129 -13.36058,20.67457 -16.69181,28.85847 -11.75231,28.87206 1.51929,0.004 4.81098,-2.6751 10.13574,-8.25 4.33716,-4.5409 7.3905,-7.30288 6.78521,-6.13771 -2.03599,3.91916 -13.75807,15.23979 -16.4903,15.92554 -3.51554,0.88234 -5.68065,-0.94477 -5.68065,-4.79382 v -3.00492 l -4.47766,4.12736 c -4.55214,4.19602 -6.66187,4.85948 -9.74271,3.06384 z m 8.74849,-3.09532 c 3.34307,-2.93525 16.0642,-21.25228 19.82201,-28.5415 0.90743,-1.76019 1.64987,-4.58681 1.64987,-6.28138 0,-12.24173 -23.37866,7.4489 -28.97416,24.40343 -1.61489,4.89317 -1.55932,11.626 0.10466,12.6801 2.28794,1.44939 3.64416,1.03494 7.39762,-2.26065 z m 31.78725,3.15186 c -3.3441,-1.34737 -4.63565,-4.64627 -3.87179,-9.88945 0.36887,-2.53196 0.75747,-5.52203 0.86355,-6.64459 0.24186,-2.55945 9.63308,-15.32129 14.27184,-19.39417 7.01996,-6.16361 16.1396,-8.94624 19.22103,-5.86481 1.93258,1.93258 1.38793,6.15671 -1.25587,9.74019 -5.12264,6.94334 -12.20545,11.04496 -25.33928,14.67384 -1.42142,0.39274 -3.59485,5.09376 -4.65606,10.07082 -1,4.68993 2.27112,7.75342 7.29492,6.83189 8.90468,-1.6334 23.91914,-15.82989 33.86746,-32.02241 4.4599,-7.25921 6.29786,-9.43054 8.00618,-9.4583 1.97856,-0.0322 1.42791,1.17547 -5.11338,11.21397 -12.29186,18.86355 -16.28048,28.78569 -12.20092,30.35117 3.78211,1.45133 15.89795,-8.80049 23.42992,-19.82524 7.30086,-10.68646 11.28959,-22.81643 7.91703,-24.07617 -0.84836,-0.31689 -0.6877,-0.69935 0.5,-1.19032 2.84111,-1.17446 4.75,0.18237 4.75,3.37627 0,12.63691 -25.42015,43.11429 -35.96016,43.11429 -2.62972,0 -6.03984,-3.4149 -6.03984,-6.04831 0,-1.12656 0.8588,-3.82581 1.90844,-5.99832 l 1.90844,-3.95001 -6.15844,5.51388 c -9.81304,8.78598 -17.40556,11.86806 -23.34307,9.47578 z m 10.25313,-20.45801 c 6.86703,-2.03996 13.79812,-6.67798 17.39039,-11.63695 7.23725,-9.99074 -0.26534,-13.43925 -10.03996,-4.61478 -3.11706,2.81407 -11.41446,12.90558 -12.91225,15.70423 -1.28605,2.40301 -0.83404,2.4475 5.56182,0.5475 z m 55.21113,20.40147 c -2.25968,-1.31703 -3.94908,-7.78798 -3.14623,-12.05107 1.84605,-9.80245 13.00227,-24.59426 21.73936,-28.82381 7.12145,-3.44744 12.58466,-2.41667 12.65892,2.3884 0.0285,1.84728 0.23458,1.77805 2.08341,-0.7 1.8407,-2.46716 4.88491,-3.77408 4.88491,-2.09716 0,0.35906 -3.14896,5.52564 -6.99769,11.48129 -8.95837,13.86246 -14.00231,23.38994 -14.00231,26.44892 0,6.08925 8.37101,0.15995 18.97612,-13.44105 3.01187,-3.8627 5.64685,-6.85237 5.85551,-6.64371 0.62288,0.62288 -8.88643,12.61065 -14.44067,18.20442 -7.64707,7.70149 -13.39096,8.1508 -13.39096,1.04749 v -3.00492 l -4.47766,4.12736 c -4.55214,4.19602 -6.66187,4.85948 -9.74271,3.06384 z m 8.74849,-3.09532 c 3.34307,-2.93525 16.0642,-21.25228 19.82201,-28.5415 0.90743,-1.76019 1.64987,-4.58681 1.64987,-6.28138 0,-12.24173 -23.37866,7.4489 -28.97416,24.40343 -1.61489,4.89317 -1.55932,11.626 0.10466,12.6801 2.28794,1.44939 3.64416,1.03494 7.39762,-2.26065 z M 51.829443,96.512136 c -8.347627,-3.710137 -11.458317,-13.686767 -9.46718,-30.363237 2.9812,-24.96859 12.606847,-43.75369 23.463396,-45.79039 8.43702,-1.58279 14.566884,1.30215 17.847324,8.39961 5.97591,12.92932 -0.96139,49.12975 -11.892523,62.05796 -5.208203,6.159717 -13.549578,8.541197 -19.951017,5.696057 z m 9.951884,-12.183097 c 2.676799,-2.6768 4.399166,-6.80698 6.978448,-16.7341 3.293966,-12.67778 5.160313,-29.2502 3.707504,-32.92116 -1.572754,-3.97403 -5.369379,-3.72946 -7.992517,0.51487 -4.497262,7.27672 -11.256715,39.17084 -9.654538,45.55442 1.295417,5.16135 3.995029,6.55204 6.961103,3.58597 z M 13.329443,95.740616 c 0,-1.16408 10.598496,-56.177447 11.668389,-60.566837 0.509863,-2.09179 0.218194,-2.25 -4.147879,-2.25 h -4.696306 l 0.660949,-4.25 c 1.305938,-8.39739 -0.131764,-7.75 17.211065,-7.75 h 15.561443 l -0.688816,5.19255 c -0.378849,2.8559 -0.91338,5.5559 -1.187847,6 -0.274468,0.4441 -2.449329,0.80745 -4.833026,0.80745 -2.563875,0 -4.515224,0.51053 -4.77772,1.25 -0.244049,0.6875 -3.104694,15.0872 -6.356989,31.99934 l -5.913263,30.749337 -6.25,6.6e-4 c -4.145404,4.4e-4 -6.25,-0.39775 -6.25,-1.1825 z m 69.28541,-1.566837 c 0.29447,-1.5125 3.59616,-18.6125 7.33708,-38 l 6.80167,-35.25 h 6.208477 c 7.13449,0 6.48875,-1.08042 8.36738,14 2.00357,16.0834 1.31112,16.07174 9.69164,0.16317 l 7.46106,-14.16317 h 6.53206 c 6.25729,0 6.51076,0.0946 6.0259,2.25 -0.27839,1.2375 -3.58968,18.33454 -7.35841,37.99341 l -6.85225,35.743407 -6.26905,0.007 c -5.9875,0.006 -6.24608,-0.0945 -5.7576,-2.24341 0.2813,-1.237497 2.09832,-10.574997 4.03782,-20.749997 1.9395,-10.175 3.71775,-19.35232 3.95165,-20.39405 0.75924,-3.3814 -1.14401,-0.35702 -7.95695,12.64405 -3.67475,7.0125 -6.80863,12.75 -6.96418,12.75 -0.15554,0 -1.09984,-6.08122 -2.09843,-13.51381 -0.9986,-7.4326 -2.10074,-13.1701 -2.4492,-12.75 -0.34846,0.42009 -2.32321,9.76381 -4.388347,20.76381 -2.06512,11 -3.97656,20.7875 -4.24764,21.749997 -0.39988,1.41983 -1.63575,1.75 -6.55048,1.75 h -6.05761 l 0.53541,-2.749997 z m 48.032837,-0.5 c 0.73978,-1.7875 7.3286,-18.8875 14.6418,-38 l 13.29675,-34.75 h 6.87161 6.87161 v 38 37.999997 h -6.64674 -6.64673 l 0.63398,-7.499997 0.63398,-7.5 h -6.38579 -6.38579 l -2.7354,7.5 -2.73541,7.499997 h -6.37947 -6.37947 z m 29.68177,-28.09912 c 0,-2.39202 0.28278,-7.90452 0.62839,-12.25 0.40612,-5.1062 0.28569,-7.54716 -0.34047,-6.90088 -0.93101,0.96093 -8.31622,21.21037 -8.29719,22.75 0.005,0.4125 1.80927,0.75 4.00927,0.75 h 4 z m 18.14151,29.327477 c -3.67513,-1.667637 -4.27058,-2.330537 -3.79782,-4.228037 0.30837,-1.23768 0.86471,-4.16282 1.2363,-6.50032 0.3716,-2.3375 0.88615,-4.25 1.14345,-4.25 0.2573,0 1.81589,0.95991 3.46353,2.13313 1.64764,1.17323 4.90732,2.3486 7.24373,2.61195 3.72966,0.42039 4.51168,0.14363 6.40866,-2.26799 3.48401,-4.4292 2.84322,-8.8669 -2.67411,-18.51905 -7.05208,-12.33708 -8.47984,-16.67652 -7.99454,-24.29801 0.50816,-7.98052 3.90168,-13.63599 10.07059,-16.78313 5.23568,-2.67105 13.26509,-2.85417 18.65119,-0.42538 4.22055,1.9032 4.12249,1.12889 1.56521,12.35889 l -0.52613,2.31042 -3.33382,-2.06042 c -4.76286,-2.94361 -10.10466,-2.7426 -12.20254,0.45918 -2.62206,4.00176 -1.3567,10.16459 3.9431,19.20461 2.52847,4.31288 5.28672,9.79587 6.12945,12.18443 3.90085,11.05618 -0.2648,23.39637 -9.48585,28.100597 -5.16719,2.6361 -13.9932,2.62237 -19.8404,-0.0309 z m 30.31315,-2.728357 c 0.45535,-3.17261 5.1422,-13.60655 14.11354,-31.4198 7.38749,-14.66839 13.4318,-26.93089 13.4318,-27.25 0,-0.31911 -3.64878,-0.5802 -8.10841,-0.5802 -7.90209,0 -8.09466,-0.0573 -7.56827,-2.25 0.29707,-1.2375 0.84593,-3.9375 1.2197,-6 l 0.67956,-3.75 h 15.50225 15.50226 l -0.70258,4.68511 c -0.45125,3.00919 -5.49986,14.2746 -14.11354,31.49286 -7.37603,14.74426 -13.41097,27.03596 -13.41097,27.31489 0,0.27893 3.65797,0.50714 8.12883,0.50714 h 8.12883 l -0.68881,5.19255 c -0.37885,2.8559 -0.91339,5.555897 -1.18785,5.999997 -0.27447,0.4441 -7.49857,0.80745 -16.05356,0.80745 h -15.55453 z m 136.68685,2.728357 c -3.67513,-1.667637 -4.27058,-2.330537 -3.79782,-4.228037 0.30837,-1.23768 0.86471,-4.16282 1.2363,-6.50032 0.3716,-2.3375 0.88615,-4.25 1.14345,-4.25 0.2573,0 1.81589,0.95991 3.46353,2.13313 1.64764,1.17323 4.90732,2.3486 7.24373,2.61195 3.72966,0.42039 4.51168,0.14363 6.40866,-2.26799 3.48401,-4.4292 2.84322,-8.8669 -2.67411,-18.51905 -7.05208,-12.33708 -8.47984,-16.67652 -7.99454,-24.29801 0.50816,-7.98052 3.90168,-13.63599 10.07059,-16.78313 5.23568,-2.67105 13.26509,-2.85417 18.65119,-0.42538 4.22055,1.9032 4.12249,1.12889 1.56521,12.35889 l -0.52613,2.31042 -3.33382,-2.06042 c -4.76286,-2.94361 -10.10466,-2.7426 -12.20254,0.45918 -2.62206,4.00176 -1.3567,10.16459 3.9431,19.20461 2.52847,4.31288 5.28672,9.79587 6.12945,12.18443 3.90085,11.05618 -0.2648,23.39637 -9.48585,28.100597 -5.16719,2.6361 -13.9932,2.62237 -19.8404,-0.0309 z m 72.91481,1.27164 c 0.031,-0.4125 3.30742,-17.399997 7.28097,-37.749997 l 7.22465,-37 6.21903,-0.29772 c 5.2169,-0.24974 6.21903,-0.0336 6.21903,1.34131 0,0.90146 -3.15,17.78854 -7,37.52683 -3.85,19.7383 -7,36.122207 -7,36.408697 0,0.28648 -2.925,0.52088 -6.5,0.52088 -3.575,0 -6.47465,-0.3375 -6.44368,-0.75 z m -110.30632,-0.91228 c 0.6875,-0.27741 1.8125,-0.27741 2.5,0 0.6875,0.27741 0.125,0.50439 -1.25,0.50439 -1.375,0 -1.9375,-0.22698 -1.25,-0.50439 z"
       id="path344" />
  </g>
</svg>
